<svg id="group" xmlns="http://www.w3.org/2000/svg" width="40" height="34.084" viewBox="0 0 40 34.084">
  <g id="Group_626" data-name="Group 626" transform="translate(31.367 18.885)">
    <g id="Group_625" data-name="Group 625">
      <path id="Path_360" data-name="Path 360" d="M401.506,273.32h-3.012a7.833,7.833,0,0,1,.475,2.693v11.382a3.358,3.358,0,0,1-.193,1.124h4.979a3.377,3.377,0,0,0,3.373-3.373v-6.2A5.628,5.628,0,0,0,401.506,273.32Z" transform="translate(-398.494 -273.32)" fill="#fff"/>
    </g>
  </g>
  <g id="Group_628" data-name="Group 628" transform="translate(0 18.885)">
    <g id="Group_627" data-name="Group 627">
      <path id="Path_361" data-name="Path 361" d="M8.158,276.014a7.834,7.834,0,0,1,.475-2.693H5.621A5.628,5.628,0,0,0,0,278.943v6.2a3.377,3.377,0,0,0,3.373,3.373H8.352a3.358,3.358,0,0,1-.193-1.124Z" transform="translate(0 -273.321)" fill="#fff"/>
    </g>
  </g>
  <g id="Group_630" data-name="Group 630" transform="translate(10.936 15.956)">
    <g id="Group_629" data-name="Group 629" transform="translate(0 0)">
      <path id="Path_362" data-name="Path 362" d="M149.335,234.815H142.45a5.628,5.628,0,0,0-5.621,5.621v11.382a1.124,1.124,0,0,0,1.124,1.124h15.879a1.124,1.124,0,0,0,1.124-1.124V240.436A5.628,5.628,0,0,0,149.335,234.815Z" transform="translate(-136.829 -234.815)" fill="#fff"/>
    </g>
  </g>
  <g id="Group_632" data-name="Group 632" transform="translate(13.239 0)">
    <g id="Group_631" data-name="Group 631">
      <path id="Path_363" data-name="Path 363" d="M173.875,38.84a6.759,6.759,0,1,0,6.761,6.761A6.768,6.768,0,0,0,173.875,38.84Z" transform="translate(-167.114 -38.84)" fill="#fff"/>
    </g>
  </g>
  <g id="Group_634" data-name="Group 634" transform="translate(2.544 6.59)">
    <g id="Group_633" data-name="Group 633">
      <path id="Path_364" data-name="Path 364" d="M38.5,121.689a5.053,5.053,0,1,0,5.056,5.056A5.062,5.062,0,0,0,38.5,121.689Z" transform="translate(-33.443 -121.689)" fill="#fff"/>
    </g>
  </g>
  <g id="Group_636" data-name="Group 636" transform="translate(27.344 6.59)">
    <g id="Group_635" data-name="Group 635">
      <path id="Path_365" data-name="Path 365" d="M350.663,121.689a5.056,5.056,0,1,0,5.056,5.056A5.062,5.062,0,0,0,350.663,121.689Z" transform="translate(-345.607 -121.689)" fill="#fff"/>
    </g>
  </g>
</svg>
