<svg id="Group_638" data-name="Group 638" xmlns="http://www.w3.org/2000/svg" width="40" height="40" viewBox="0 0 40 40">
  <path id="Path_382" data-name="Path 382" d="M0,0H40V40H0Z" fill="none"/>
  <path id="github" d="M19.683.5A19.513,19.513,0,0,0,0,19.842,19.374,19.374,0,0,0,13.458,38.193c.984.182,1.345-.417,1.345-.93,0-.459-.016-1.676-.025-3.289-5.475,1.166-6.63-2.595-6.63-2.595a5.156,5.156,0,0,0-2.19-2.829c-1.783-1.2.138-1.174.138-1.174a4.118,4.118,0,0,1,3.015,1.993c1.755,2.957,4.607,2.1,5.733,1.609a4.1,4.1,0,0,1,1.247-2.587c-4.371-.484-8.966-2.147-8.966-9.558a7.39,7.39,0,0,1,2.026-5.19,6.767,6.767,0,0,1,.172-5.119s1.648-.518,5.413,1.983a18.872,18.872,0,0,1,9.842,0c3.74-2.5,5.388-1.983,5.388-1.983a6.954,6.954,0,0,1,.2,5.119,7.42,7.42,0,0,1,2.018,5.19c0,7.43-4.6,9.066-8.98,9.541a4.589,4.589,0,0,1,1.329,3.579c0,2.588-.025,4.668-.025,5.3,0,.507.344,1.112,1.353.919A19.315,19.315,0,0,0,39.366,19.842,19.516,19.516,0,0,0,19.683.5Z" transform="translate(0.317 0.534)" fill="#fff"/>
</svg>
