<svg xmlns="http://www.w3.org/2000/svg" width="58.5" height="71.6" viewBox="0 0 58.5 71.6">
  <path id="Icon_material-android" data-name="Icon material-android" d="M14.7,53.7a2.963,2.963,0,0,0,2.925,2.983H20.55V67.125a4.388,4.388,0,1,0,8.775,0V56.683h5.85V67.125a4.388,4.388,0,1,0,8.775,0V56.683h2.925A2.963,2.963,0,0,0,49.8,53.7V23.867H14.7ZM7.387,23.867A4.426,4.426,0,0,0,3,28.342V49.225A4.426,4.426,0,0,0,7.387,53.7a4.426,4.426,0,0,0,4.388-4.475V28.342A4.426,4.426,0,0,0,7.387,23.867Zm49.725,0a4.426,4.426,0,0,0-4.388,4.475V49.225a4.388,4.388,0,1,0,8.775,0V28.342A4.426,4.426,0,0,0,57.112,23.867ZM42.575,6.444l3.8-3.878a1.5,1.5,0,0,0,0-2.118,1.428,1.428,0,0,0-2.077,0L39.972,4.863A16.81,16.81,0,0,0,32.25,2.983a17.051,17.051,0,0,0-7.78,1.88L20.111.448a1.428,1.428,0,0,0-2.077,0,1.5,1.5,0,0,0,0,2.118l3.832,3.908A17.965,17.965,0,0,0,14.7,20.883H49.8A17.91,17.91,0,0,0,42.575,6.444ZM26.4,14.917H23.475V11.933H26.4Zm14.625,0H38.1V11.933h2.925Z" transform="translate(-3)" fill="#fff"/>
</svg>
