<svg xmlns="http://www.w3.org/2000/svg" width="52.987" height="67.811" viewBox="0 0 52.987 67.811">
  <path id="Icon_metro-apple" data-name="Icon metro-apple" d="M49.691,37.959a15.4,15.4,0,0,1,7.025-12.911,15,15,0,0,0-11.9-6.72c-5.067-.535-9.888,3.109-12.46,3.109s-6.534-3.03-10.737-2.95a15.845,15.845,0,0,0-13.46,8.5c-5.739,10.377-1.47,25.75,4.124,34.165,2.733,4.119,5.992,8.746,10.271,8.581,4.121-.171,5.679-2.779,10.661-2.779s6.382,2.779,10.743,2.693c4.434-.086,7.243-4.2,9.958-8.33a38.121,38.121,0,0,0,4.507-9.644,14.9,14.9,0,0,1-8.732-13.717ZM41.5,12.757A15.357,15.357,0,0,0,44.883,1.928,14.4,14.4,0,0,0,35.3,7.064c-2.106,2.541-3.949,6.6-3.455,10.492C35.5,17.852,39.224,15.621,41.5,12.757Z" transform="translate(-5.435 -1.928)" fill="#fff"/>
</svg>
