<svg xmlns="http://www.w3.org/2000/svg" width="62.185" height="70.381" viewBox="0 0 62.185 70.381">
  <g id="Group_726" data-name="Group 726" transform="translate(-55 -19.339)">
    <g id="Group_382" data-name="Group 382" transform="translate(55 19.339)">
      <path id="Path_1" data-name="Path 1" d="M50.455,0a4.662,4.662,0,0,1,4.038,2.331l15.263,26.43a4.662,4.662,0,0,1,0,4.663L54.493,59.854a4.662,4.662,0,0,1-4.038,2.331H19.926a4.662,4.662,0,0,1-4.038-2.331L.625,33.424a4.662,4.662,0,0,1,0-4.663L15.888,2.331A4.662,4.662,0,0,1,19.926,0Z" transform="translate(62.185 0) rotate(90)" fill="#356290"/>
      <path id="Path_252" data-name="Path 252" d="M41.41,0a6.279,6.279,0,0,1,5.437,3.139l11.71,20.28a6.279,6.279,0,0,1,0,6.279l-11.71,20.28a6.279,6.279,0,0,1-5.437,3.139H17.988a6.279,6.279,0,0,1-5.437-3.139L.841,29.7a6.279,6.279,0,0,1,0-6.279l11.71-20.28A6.279,6.279,0,0,1,17.988,0Z" transform="translate(57.652 5.499) rotate(90)" fill="#1784b2"/>
      <path id="Path_251" data-name="Path 251" d="M35.7,0a3.776,3.776,0,0,1,3.27,1.888L49.613,20.323a3.776,3.776,0,0,1,0,3.775L38.971,42.534a3.776,3.776,0,0,1-3.27,1.888H14.418a3.776,3.776,0,0,1-3.27-1.888L.506,24.1a3.776,3.776,0,0,1,0-3.775L11.148,1.888A3.776,3.776,0,0,1,14.418,0Z" transform="translate(53.303 10.131) rotate(90)" fill="#50bfc3"/>
      <path id="_x3C__x2F__x3E_" d="M91.95,190.668V186.8l-6.739-2.266,6.739-2.325v-3.868L81,182.827v3.357Zm4,3.025L102.177,174H99.14l-6.228,19.694Zm7.439-3.025,10.95-4.52V182.8l-10.95-4.461V182.3l6.122,2.408-6.122,2Z" transform="translate(-66.575 -148.649)" fill="#fff"/>
    </g>
  </g>
</svg>