<?xml version="1.0"?>
<svg xmlns="http://www.w3.org/2000/svg" viewBox="0 0 50 50">
    <path style="text-indent:0;text-align:start;line-height:normal;text-transform:none;block-progression:tb;-inkscape-font-specification:Sans" d="M 24.78125 2.9375 A 2.0002 2.0002 0 0 0 23 4.96875 L 23 28.6875 L 19.40625 25.09375 A 2.0002 2.0002 0 0 0 17.78125 24.5 A 2.0002 2.0002 0 0 0 16.59375 27.9375 L 23.59375 34.9375 L 25 36.34375 L 26.40625 34.9375 L 33.40625 27.9375 A 2.0002 2.0002 0 1 0 30.59375 25.09375 L 27 28.6875 L 27 4.96875 A 2.0002 2.0002 0 0 0 24.96875 2.9375 A 2.0002 2.0002 0 0 0 24.78125 2.9375 z M 2 36 L 2 41.6875 C 2 43.162348 2.4507106 44.593614 3.5 45.59375 C 4.5492894 46.593886 5.9953371 47 7.4375 47 L 42.59375 47 C 44.054356 47 45.501881 46.58495 46.53125 45.5625 C 47.560619 44.54005 48 43.059539 48 41.59375 L 48 36 L 44 36 L 44 41.59375 C 44 42.328961 43.842381 42.59595 43.71875 42.71875 C 43.595119 42.84155 43.333144 43 42.59375 43 L 7.4375 43 C 6.6786629 43 6.4007106 42.832614 6.28125 42.71875 C 6.1617894 42.604886 6 42.412652 6 41.6875 L 6 36 L 2 36 z" overflow="visible" font-family="Sans"/>
</svg>
