<svg xmlns="http://www.w3.org/2000/svg" xmlns:xlink="http://www.w3.org/1999/xlink" width="437.313" height="85.066" viewBox="0 0 437.313 85.066">
  <defs>
    <linearGradient id="linear-gradient" x1="0.5" x2="0.5" y2="1" gradientUnits="objectBoundingBox">
      <stop offset="0" stop-color="#254a72"/>
      <stop offset="1" stop-color="#10243e"/>
    </linearGradient>
  </defs>
  <g id="Group_3127" data-name="Group 3127" transform="translate(-9.001 0)">
    <path id="Path_4095" data-name="Path 4095" d="M65.043-163.877c-3.149,1.5-33.147,31.73-34.25,34.565a13.055,13.055,0,0,0,.787,10.629c2.047,3.307,29.132,30.392,32.517,32.439a12.529,12.529,0,0,0,11.023.472c1.417-.63,9.448-8.11,18.03-16.692,17.164-17.4,18.109-18.9,16.377-25.51-.787-3.071-2.992-5.669-16.377-19.054-8.5-8.582-16.534-16.062-17.951-16.771A12.662,12.662,0,0,0,65.043-163.877Zm-.236,29.053-8.9,8.9,6.614,6.456c6.141,5.984,6.929,6.456,9.921,6.456,6.614,0,10.393-6.771,6.85-12.2l-1.417-2.126-3.071,2.992-3.071,2.992-3.149-3.071L65.436-127.5l6.063-6.141,6.063-6.141,4.252,4.173c6.85,6.614,8.818,11.968,7.165,18.817-2.441,10.472-14.172,15.826-23.935,11.1C63.783-106.322,58.35-111.2,53-116.4l-9.606-9.606,11.968-11.968L67.4-150.019l3.149,3.15,3.149,3.149Z" transform="translate(-21.025 164.901)" fill="url(#linear-gradient)"/>
    <path id="Path_4096" data-name="Path 4096" d="M27.845-9.282V.077H.793V-9.282ZM6.934-20.044H19.393v41.88a5.587,5.587,0,0,0,.526,2.676A2.88,2.88,0,0,0,21.4,25.842a5.918,5.918,0,0,0,2.208.38,9.712,9.712,0,0,0,1.755-.161l1.345-.249,1.959,9.271q-.936.292-2.632.687a22,22,0,0,1-4.124.483,18.832,18.832,0,0,1-7.882-1.2,11.012,11.012,0,0,1-5.25-4.27,13.055,13.055,0,0,1-1.842-7.311ZM56.118,36.517a22.842,22.842,0,0,1-11.771-2.91,19.667,19.667,0,0,1-7.648-8.13,26.1,26.1,0,0,1-2.691-12.122A26.238,26.238,0,0,1,36.7,1.173a19.667,19.667,0,0,1,7.648-8.13,22.842,22.842,0,0,1,11.771-2.91,22.842,22.842,0,0,1,11.771,2.91,19.667,19.667,0,0,1,7.648,8.13,26.238,26.238,0,0,1,2.691,12.181,26.1,26.1,0,0,1-2.691,12.122,19.667,19.667,0,0,1-7.648,8.13A22.842,22.842,0,0,1,56.118,36.517Zm.058-9.651A7.7,7.7,0,0,0,61.353,25.1a10.882,10.882,0,0,0,3.144-4.84,21.226,21.226,0,0,0,1.067-6.99A21.226,21.226,0,0,0,64.5,6.277a10.988,10.988,0,0,0-3.144-4.855A7.664,7.664,0,0,0,56.176-.362a7.876,7.876,0,0,0-5.25,1.784,10.811,10.811,0,0,0-3.188,4.855,21.226,21.226,0,0,0-1.067,6.99,21.226,21.226,0,0,0,1.067,6.99,10.709,10.709,0,0,0,3.188,4.84A7.917,7.917,0,0,0,56.176,26.866ZM86.7,52.485V-9.282H98.985v7.545h.556a16.516,16.516,0,0,1,2.384-3.7,12.546,12.546,0,0,1,4.094-3.159,13.955,13.955,0,0,1,6.3-1.272,16.957,16.957,0,0,1,9.066,2.559A17.874,17.874,0,0,1,128.026.384a29.415,29.415,0,0,1,2.486,12.854A29.833,29.833,0,0,1,128.1,25.915a18.018,18.018,0,0,1-6.551,7.809,16.818,16.818,0,0,1-9.256,2.647,14.3,14.3,0,0,1-6.156-1.2A12.617,12.617,0,0,1,102,32.145a15.047,15.047,0,0,1-2.457-3.7h-.38v24.04ZM98.9,13.179a19.994,19.994,0,0,0,1.111,6.99,10.279,10.279,0,0,0,3.217,4.635,8.735,8.735,0,0,0,10.265-.029,10.378,10.378,0,0,0,3.2-4.679,20.076,20.076,0,0,0,1.1-6.917,19.85,19.85,0,0,0-1.082-6.844,10.2,10.2,0,0,0-3.188-4.621A8.08,8.08,0,0,0,108.343.047a8.168,8.168,0,0,0-5.133,1.609,10.04,10.04,0,0,0-3.2,4.562A19.747,19.747,0,0,0,98.9,13.179Zm60.473,39.95A29.254,29.254,0,0,1,149,51.491a17.547,17.547,0,0,1-6.858-4.416,13.381,13.381,0,0,1-3.3-6.171l11.523-1.55a7.166,7.166,0,0,0,1.667,2.325,8.662,8.662,0,0,0,3.027,1.8,13.272,13.272,0,0,0,4.606.7,11.1,11.1,0,0,0,6.712-1.93q2.647-1.93,2.647-6.346V27.685h-.526a11.839,11.839,0,0,1-2.457,3.539,12.38,12.38,0,0,1-4.211,2.72A16.187,16.187,0,0,1,155.685,35a18.271,18.271,0,0,1-9.2-2.354,16.544,16.544,0,0,1-6.58-7.224,27.426,27.426,0,0,1-2.442-12.327A29.086,29.086,0,0,1,139.95.34a17.824,17.824,0,0,1,6.624-7.662,17.006,17.006,0,0,1,9.081-2.544,14.05,14.05,0,0,1,6.317,1.272,12.507,12.507,0,0,1,4.109,3.159,17.436,17.436,0,0,1,2.413,3.7h.468V-9.282h12.371v45.36a15.352,15.352,0,0,1-2.808,9.4,17.113,17.113,0,0,1-7.765,5.718A31.241,31.241,0,0,1,159.37,53.129Zm.263-27.491a8.5,8.5,0,0,0,5.1-1.506,9.5,9.5,0,0,0,3.217-4.328,18.263,18.263,0,0,0,1.126-6.77,19.2,19.2,0,0,0-1.111-6.858,10.008,10.008,0,0,0-3.217-4.518,8.941,8.941,0,0,0-10.295.044,10.106,10.106,0,0,0-3.188,4.577,19.412,19.412,0,0,0-1.082,6.756,18.516,18.516,0,0,0,1.1,6.712,9.509,9.509,0,0,0,3.188,4.358A8.484,8.484,0,0,0,159.633,25.638Zm52.459,10.879a23.819,23.819,0,0,1-11.918-2.822,19.09,19.09,0,0,1-7.677-8.013,26.4,26.4,0,0,1-2.691-12.3A26.26,26.26,0,0,1,192.5,1.217a19.859,19.859,0,0,1,7.589-8.16,22.027,22.027,0,0,1,11.508-2.925,23.775,23.775,0,0,1,8.291,1.418,18.688,18.688,0,0,1,6.727,4.255A19.383,19.383,0,0,1,231.1,2.928a28.444,28.444,0,0,1,1.609,10.017v3.422H194.778V8.646h26.2a9.544,9.544,0,0,0-1.17-4.767A8.512,8.512,0,0,0,216.581.618,9.429,9.429,0,0,0,211.8-.567a9.591,9.591,0,0,0-5.016,1.3,9.335,9.335,0,0,0-3.407,3.48,9.912,9.912,0,0,0-1.258,4.84V16.4a12.5,12.5,0,0,0,1.243,5.761,8.9,8.9,0,0,0,3.524,3.743,10.644,10.644,0,0,0,5.41,1.316,11.782,11.782,0,0,0,3.8-.585,7.891,7.891,0,0,0,2.954-1.755,7.63,7.63,0,0,0,1.872-2.866l11.523.76a15.707,15.707,0,0,1-3.583,7.238,18,18,0,0,1-6.961,4.8A26.158,26.158,0,0,1,212.092,36.517Zm49.564,0a23.819,23.819,0,0,1-11.918-2.822,19.09,19.09,0,0,1-7.677-8.013,26.4,26.4,0,0,1-2.691-12.3,26.261,26.261,0,0,1,2.691-12.166,19.859,19.859,0,0,1,7.589-8.16,22.027,22.027,0,0,1,11.508-2.925,23.775,23.775,0,0,1,8.291,1.418,18.688,18.688,0,0,1,6.727,4.255,19.383,19.383,0,0,1,4.489,7.121,28.444,28.444,0,0,1,1.609,10.017v3.422H244.342V8.646h26.2a9.544,9.544,0,0,0-1.17-4.767A8.512,8.512,0,0,0,266.145.618a9.429,9.429,0,0,0-4.782-1.184,9.591,9.591,0,0,0-5.016,1.3,9.335,9.335,0,0,0-3.407,3.48,9.912,9.912,0,0,0-1.258,4.84V16.4a12.5,12.5,0,0,0,1.243,5.761A8.9,8.9,0,0,0,256.45,25.9a10.644,10.644,0,0,0,5.411,1.316,11.782,11.782,0,0,0,3.8-.585,7.891,7.891,0,0,0,2.954-1.755,7.63,7.63,0,0,0,1.872-2.866l11.523.76a15.707,15.707,0,0,1-3.583,7.238,18,18,0,0,1-6.961,4.8A26.159,26.159,0,0,1,261.656,36.517Zm40.381-13.8.029-14.945h1.813l14.389-17.05h14.3L313.238,13.3h-2.954ZM290.748,35.64v-59.9h12.459v59.9Zm28.076,0L305.6,16.074l8.306-8.8L333.417,35.64Z" transform="translate(112.897 31.938)" fill="url(#linear-gradient)"/>
  </g>
</svg>