<?xml version="1.0" encoding="UTF-8"?>
<svg width="64px" height="64px" viewBox="0 0 64 64" version="1.1" xmlns="http://www.w3.org/2000/svg" xmlns:xlink="http://www.w3.org/1999/xlink">
    <title>car-key</title>
    <g id="Page-1" stroke="none" stroke-width="1" fill="none" fill-rule="evenodd" opacity="0.6">
        <g id="Nativebase-Github" transform="translate(-219.000000, -698.000000)" fill="#6863A9" fill-rule="nonzero">
            <g id="Group-6" transform="translate(121.000000, 695.000000)">
                <g id="Group-2" transform="translate(0.000000, 3.000000)">
                    <g id="car-key" transform="translate(98.000000, 0.000000)">
                        <polygon id="Path" points="49 45.125 52.75 45.125 52.75 52.625 49 52.625"></polygon>
                        <path d="M58.375,22.625 L52.75,22.625 L52.75,20.75 C52.75,15.580875 48.544125,11.375 43.375,11.375 L30,11.375 L30,5.625 C30,2.52325 27.47675,0 24.375,0 L5.625,0 C2.52325,0 0,2.52325 0,5.625 L0,20.75 C0,25.919125 4.205875,30.125 9.375,30.125 L20.625,30.125 C25.794125,30.125 30,25.919125 30,20.75 L30,15.125 L43.375,15.125 C46.47675,15.125 49,17.64825 49,20.75 L49,22.625 L43.375,22.625 C40.27325,22.625 37.75,25.14825 37.75,28.25 L37.75,58.25 C37.75,61.35175 40.27325,64 43.375,64 L58.375,64 C61.47675,64 64,61.35175 64,58.25 L64,28.25 C64,25.14825 61.47675,22.625 58.375,22.625 Z M16.875,18.875 L13.125,18.875 C10.02325,18.875 7.5,16.35175 7.5,13.25 C7.5,10.14825 10.02325,7.625 13.125,7.625 L16.875,7.625 C19.97675,7.625 22.5,10.14825 22.5,13.25 C22.5,16.35175 19.97675,18.875 16.875,18.875 Z M56.5,54.5 C56.5,55.536375 55.661375,56.375 54.625,56.375 L47.125,56.375 C46.088625,56.375 45.25,55.536375 45.25,54.5 C45.25,54.011625 45.25,31.205375 45.25,32 C45.25,30.963625 46.088625,30.125 47.125,30.125 L54.625,30.125 C55.661375,30.125 56.5,30.963625 56.5,32 C56.5,32.488375 56.5,55.294625 56.5,54.5 Z" id="Shape"></path>
                        <polygon id="Path" points="49 33.875 52.75 33.875 52.75 41.375 49 41.375"></polygon>
                        <path d="M9.375,33.875 C8.733,33.875 8.11775,33.775 7.5,33.6855 L7.5,54.5 C7.5,54.9065 7.631875,55.300125 7.875375,55.62425 L13.500375,63.24925 C13.85375,63.721625 14.410375,64 15,64 C15.589625,64 16.14625,63.721625 16.499625,63.24925 L22.124625,55.62425 C22.684875,54.879 22.609875,53.8335 21.950625,53.17425 L19.526375,50.75 L21.95075,48.325625 C22.683125,47.59325 22.683125,46.406625 21.95075,45.67425 L19.526375,43.25 L21.95075,40.825625 C22.30225,40.474125 22.5000313,39.998 22.5000313,39.5 L22.5000313,33.6855 C21.88225,33.775 21.267,33.875 20.625,33.875 L9.375,33.875 Z" id="Path"></path>
                        <path d="M16.875,11.375 L13.125,11.375 C12.0905,11.375 11.25,12.2155 11.25,13.25 C11.25,14.2845 12.0905,15.125 13.125,15.125 L16.875,15.125 C17.9095,15.125 18.75,14.2845 18.75,13.25 C18.75,12.2155 17.9095,11.375 16.875,11.375 Z" id="Path"></path>
                    </g>
                </g>
            </g>
        </g>
    </g>
</svg>