<?xml version="1.0" encoding="UTF-8"?>
<svg width="73px" height="65px" viewBox="0 0 73 65" version="1.1" xmlns="http://www.w3.org/2000/svg" xmlns:xlink="http://www.w3.org/1999/xlink">
    <title>responsive</title>
    <g id="Page-1" stroke="none" stroke-width="1" fill="none" fill-rule="evenodd" opacity="0.6">
        <g id="Nativebase-Github" transform="translate(-527.000000, -697.000000)" fill="#6863A9" fill-rule="nonzero">
            <g id="Group-6" transform="translate(121.000000, 695.000000)">
                <g id="Group-3" transform="translate(313.000000, 2.000000)">
                    <g id="responsive" transform="translate(93.000000, 0.000000)">
                        <path d="M70.8613281,17.8166667 L64.4453125,17.8166667 L64.4453125,2.88333333 C64.4453125,1.70516444 63.4877578,0.75 62.3066406,0.75 L2.13867188,0.75 C0.957554687,0.75 0,1.70516444 0,2.88333333 L0,41.2833333 C0,42.4615022 0.957554688,43.4166667 2.13867188,43.4166667 L30.0839844,43.4166667 L30.0839844,51.95 L19.390625,51.95 C18.2095078,51.95 17.2519531,52.9051644 17.2519531,54.0833333 C17.2519531,55.2615022 18.2095078,56.2166667 19.390625,56.2166667 L43.0585938,56.2166667 L43.0585938,62.6166667 C43.0585938,63.7948356 44.0161484,64.75 45.1972656,64.75 L70.8613281,64.75 C72.0424453,64.75 73,63.7948356 73,62.6166667 L73,19.95 C73,18.7718311 72.0424453,17.8166667 70.8613281,17.8166667 Z M4.27734375,5.01666667 L60.1679688,5.01666667 L60.1679688,17.8166667 L45.1972656,17.8166667 C44.0161484,17.8166667 43.0585938,18.7718311 43.0585938,19.95 L43.0585938,39.15 L4.27734375,39.15 L4.27734375,5.01666667 Z M34.3463574,51.95 L34.3463574,43.4166667 L43.0585938,43.4166667 L43.0585938,51.95 L34.3463574,51.95 Z M68.7226562,60.4833333 L47.3359375,60.4833333 L47.3359375,22.0833333 L68.7226562,22.0833333 L68.7226562,60.4833333 Z" id="Shape"></path>
                        <path d="M60.75,26.75 L56.25,26.75 C55.0074,26.75 54,27.6454667 54,28.75 C54,29.8545333 55.0074,30.75 56.25,30.75 L60.75,30.75 C61.9926,30.75 63,29.8545333 63,28.75 C63,27.6454667 61.9926,26.75 60.75,26.75 Z" id="Path"></path>
                        <path d="M60.75,52.75 L56.25,52.75 C55.0074,52.75 54,53.6454667 54,54.75 C54,55.8545333 55.0074,56.75 56.25,56.75 L60.75,56.75 C61.9926,56.75 63,55.8545333 63,54.75 C63,53.6454667 61.9926,52.75 60.75,52.75 Z" id="Path"></path>
                    </g>
                </g>
            </g>
        </g>
    </g>
</svg>