<?xml version="1.0" encoding="UTF-8"?>
<svg width="88px" height="64px" viewBox="0 0 88 64" version="1.1" xmlns="http://www.w3.org/2000/svg" xmlns:xlink="http://www.w3.org/1999/xlink">
    <title>mockup</title>
    <g id="Page-1" stroke="none" stroke-width="1" fill="none" fill-rule="evenodd" opacity="0.62">
        <g id="Nativebase-Github" transform="translate(-836.000000, -698.000000)" fill="#6863A9" fill-rule="nonzero">
            <g id="Group-6" transform="translate(121.000000, 695.000000)">
                <g id="Group-4" transform="translate(627.000000, 3.000000)">
                    <g id="mockup" transform="translate(88.000000, 0.000000)">
                        <path d="M85.421875,0 L18.046875,0 C8.09558097,0 0,8.10257653 0,18.0624697 L0,61.1852722 C0,62.6105139 1.15411381,63.765625 2.578125,63.765625 L69.953125,63.765625 C79.904419,63.765625 88,55.6630483 88,45.7031553 L88,2.58035281 C88,1.15511111 86.8458862,0 85.421875,0 Z M71.4911683,60.7001575 L28.2861939,60.7001575 L28.2861939,18.7953956 L84.8576225,18.7953956 L84.8576225,46.3150861 C84.8576225,54.2471042 78.8615147,60.7001575 71.4911683,60.7001575 Z M18.8821105,3.06546753 L84.9389881,3.06546753 L84.9389881,15.8604343 L4.27232143,15.8604343 C5.30727014,9.79257327 12.6041296,3.06546753 18.8821105,3.06546753 Z M3.0610119,60.8306637 L3.0610119,18.9259018 L25.225182,18.9259018 L25.225182,60.8306637 L3.0610119,60.8306637 Z" id="Shape"></path>
                        <path d="M68,28.9963611 C68,27.8390695 66.8448523,26.901123 65.419565,26.901123 L37.580435,26.901123 C36.1551477,26.901123 35,27.8390695 35,28.9963611 C35,30.1536528 36.1551477,31.0915992 37.580435,31.0915992 L65.419565,31.0915992 C66.8448523,31.0915992 68,30.1536528 68,28.9963611 Z" id="Path"></path>
                        <path d="M71,38.95974 C71,37.802994 69.8545158,36.864502 68.4426399,36.864502 L42.5573601,36.864502 C41.1448183,36.864502 40,37.802994 40,38.95974 C40,40.1170317 41.1448183,41.0549781 42.5573601,41.0549781 L68.4426399,41.0549781 C69.8545158,41.0549781 71,40.1170317 71,38.95974 Z" id="Path"></path>
                        <path d="M72.3810444,45.831543 L47.6189556,45.831543 C46.1723919,45.831543 45,46.7694894 45,47.9267811 C45,49.0835271 46.1723919,50.0220192 47.6189556,50.0220192 L72.3810444,50.0220192 C73.8276081,50.0220192 75,49.0835271 75,47.9267811 C75,46.7694894 73.8276081,45.831543 72.3810444,45.831543 L72.3810444,45.831543 Z" id="Path"></path>
                    </g>
                </g>
            </g>
        </g>
    </g>
</svg>