 <svg
      xmlns="http://www.w3.org/2000/svg"
      className="h-20 w-20 flex-no-shrink"
      viewBox="0 0 80 80"
    >
      <g id="Group_484" data-name="Group 484" transform="translate(-328 -355)">
        <rect
          id="Rectangle_172"
          data-name="Rectangle 172"
          width="80"
          height="79.774"
          transform="translate(328 355)"
          fill="none"
        />
        <g
          id="Group_481"
          data-name="Group 481"
          transform="translate(338.672 355)"
        >
          <g id="hand" transform="translate(12.645 27.084)">
            <path
              id="Path_321"
              data-name="Path 321"
              d="M85.876,15.676a3.039,3.039,0,0,0-2.587,1.446v-.989a3.042,3.042,0,0,0-5.631-1.6V13.85a3.042,3.042,0,0,0-5.631-1.6V3.044a3.044,3.044,0,1,0-6.088,0V25.888l-3.424-4.336a3.044,3.044,0,0,0-4.778,3.773l8.789,11.129a7.631,7.631,0,0,0,7.034,4.69h7.3a8.071,8.071,0,0,0,8.062-8.062V18.72A3.044,3.044,0,0,0,85.876,15.676Z"
              transform="translate(-57.081)"
              fill="#fff"
            />
            <path
              id="Path_322"
              data-name="Path 322"
              d="M130.991,239.446h-18.5a1.714,1.714,0,0,0-1.714,1.714v5.281a1.714,1.714,0,0,0,1.714,1.714h18.5a1.714,1.714,0,0,0,1.714-1.714V241.16A1.714,1.714,0,0,0,130.991,239.446Z"
              transform="translate(-100.866 -195.238)"
              fill="#fff"
            />
          </g>
          <g id="_x3C_Group_x3E__4_" transform="translate(20.296 0) rotate(40)">
            <g
              id="Group_476"
              data-name="Group 476"
              transform="translate(16.851 0)"
            >
              <path
                id="Path_316"
                data-name="Path 316"
                d="M1.4,11.234A1.4,1.4,0,0,1,0,9.83V1.4a1.4,1.4,0,1,1,2.809,0V9.83A1.4,1.4,0,0,1,1.4,11.234Z"
                transform="translate(0 0)"
                fill="#fff"
              />
            </g>
            <g
              id="Group_477"
              data-name="Group 477"
              transform="translate(4.935 4.935)"
            >
              <path
                id="Path_317"
                data-name="Path 317"
                d="M6.37,8.356.411,2.4A1.4,1.4,0,0,1,2.4.411L8.356,6.37A1.4,1.4,0,0,1,6.37,8.356Z"
                transform="translate(0)"
                fill="#fff"
              />
            </g>
            <g
              id="Group_478"
              data-name="Group 478"
              transform="translate(4.935 22.808)"
            >
              <path
                id="Path_318"
                data-name="Path 318"
                d="M.411,8.356a1.4,1.4,0,0,1,0-1.986L6.37.411A1.4,1.4,0,0,1,8.356,2.4L2.4,8.356A1.4,1.4,0,0,1,.411,8.356Z"
                transform="translate(0)"
                fill="#fff"
              />
            </g>
            <g
              id="Group_479"
              data-name="Group 479"
              transform="translate(22.808 4.936)"
            >
              <path
                id="Path_319"
                data-name="Path 319"
                d="M.411,8.356a1.4,1.4,0,0,1,0-1.986L6.37.411A1.4,1.4,0,0,1,8.356,2.4L2.4,8.356A1.4,1.4,0,0,1,.411,8.356Z"
                fill="#fff"
              />
            </g>
            <g
              id="Group_480"
              data-name="Group 480"
              transform="translate(0 16.851)"
            >
              <path
                id="Path_320"
                data-name="Path 320"
                d="M9.83,2.809H1.4A1.4,1.4,0,1,1,1.4,0H9.83a1.4,1.4,0,1,1,0,2.809Z"
                transform="translate(0 0)"
                fill="#fff"
              />
            </g>
          </g>
        </g>
      </g>
    </svg>