 <svg
      xmlns="http://www.w3.org/2000/svg"
      width="43"
      height="43"
      viewBox="0 0 43 43"
    >
      <g id="Group_540" data-name="Group 540" transform="translate(-67 -42)">
        <g id="Group_453" data-name="Group 453" transform="translate(-7 3)">
          <rect
            id="Rectangle_166"
            data-name="Rectangle 166"
            width="43"
            height="43"
            rx="8"
            transform="translate(74 39)"
            fill="#be185d"
          />
        </g>
        <g
          id="Group_483"
          data-name="Group 483"
          transform="translate(5.007 8.959)"
        >
          <g
            id="deal_1_"
            data-name="deal (1)"
            transform="translate(72.23 59.748)"
          >
            <path
              id="Path_326"
              data-name="Path 326"
              d="M139.048,327.54a1.229,1.229,0,0,0,.835,1.284l11.752,4.278,3.336-1.126a.583.583,0,0,1,.385,0l.547.2,1.989-5.467-3.653-1.329-7.749,1.367a1.168,1.168,0,0,0-.892.749.64.64,0,0,0-.04.145.59.59,0,0,1-.01.058,1.077,1.077,0,0,0,0,.4,1.171,1.171,0,0,0,1.348.939l6.547-1.154.2,1.146-6.55,1.157a2.336,2.336,0,0,1-2.7-1.888,2.512,2.512,0,0,1-.026-.32L140.6,326.61a1.163,1.163,0,0,0-1.551.93Zm0,0"
              transform="translate(-139.042 -325.383)"
              fill="#fff"
            />
            <path
              id="Path_327"
              data-name="Path 327"
              d="M380.5,341.781l2.785-7.652,2.186.8-2.785,7.652Zm0,0"
              transform="translate(-362.942 -333.493)"
              fill="#fff"
            />
          </g>
          <path
            id="key"
            d="M98.955,4.558A4.558,4.558,0,1,0,93.394,9v7.485a1,1,0,0,0,2.007,0v-.322h1.351a.664.664,0,1,0,0-1.327h-.027a.233.233,0,0,1-.233-.233v-.371A.233.233,0,0,1,96.725,14h.027a.664.664,0,1,0,0-1.327H95.4V9A4.565,4.565,0,0,0,98.955,4.558ZM94.4,7.123a2.565,2.565,0,1,1,2.565-2.565A2.565,2.565,0,0,1,94.4,7.123Z"
            transform="translate(-12.15 40.25)"
            fill="#fff"
          />
        </g>
      </g>
    </svg>