 <svg
      xmlns="http://www.w3.org/2000/svg"
      className="h-10 w-10 flex-no-shrink"
      viewBox="0 0 65 57.12"
    >
      <g
        id="Group_488"
        data-name="Group 488"
        transform="translate(-647.355 -379.671)"
      >
        <path
          id="Icon_material-person"
          data-name="Icon material-person"
          d="M27.323,27.323A10.661,10.661,0,1,0,16.661,16.661,10.658,10.658,0,0,0,27.323,27.323Zm0,5.331C20.206,32.653,6,36.225,6,43.314v5.331H48.645V43.314C48.645,36.225,34.439,32.653,27.323,32.653Z"
          transform="translate(641.355 388.146)"
          fill="#fff"
        />
        <path
          id="Icon_awesome-wifi"
          data-name="Icon awesome-wifi"
          d="M44.642,10.89a32.692,32.692,0,0,0-44.284,0,1.118,1.118,0,0,0-.025,1.616l2.408,2.389a1.142,1.142,0,0,0,1.575.027,26.976,26.976,0,0,1,36.369,0,1.142,1.142,0,0,0,1.575-.027l2.408-2.389a1.118,1.118,0,0,0-.025-1.616ZM36.75,18.873a21.586,21.586,0,0,0-28.5,0A1.111,1.111,0,0,0,8.21,20.5l2.422,2.39a1.148,1.148,0,0,0,1.55.056,15.836,15.836,0,0,1,20.636,0,1.147,1.147,0,0,0,1.55-.056L36.79,20.5A1.111,1.111,0,0,0,36.75,18.873Z"
          transform="translate(714.385 379.671) rotate(90)"
          fill="#fff"
        />
      </g>
    </svg>